<svg id="bars" width="50" height="50" viewBox="0 0 50.076923 50.076999">
    <rect
       style="fill:#001e64;fill-opacity:1;stroke:#001e64;stroke-width:2;stroke-dasharray:none;stroke-opacity:1"
       id="rect1039"
       width="48.076923"
       height="48.076923"
       x="1"
       y="1"
       ry="4.8076925" />
    <path
       d="m 12.538465,16.109889 c 0,-0.986049 0.79967,-1.785714 1.78572,-1.785714 h 21.42857 c 0.98772,0 1.78571,0.799665 1.78571,1.785714 0,0.987724 -0.79799,1.785712 -1.78571,1.785712 h -21.42857 c -0.98605,0 -1.78572,-0.797988 -1.78572,-1.785712 z m 0,8.928571 c 0,-0.987723 0.79967,-1.785711 1.78572,-1.785711 h 21.42857 c 0.98772,0 1.78571,0.797988 1.78571,1.785711 0,0.987723 -0.79799,1.785715 -1.78571,1.785715 h -21.42857 c -0.98605,0 -1.78572,-0.797992 -1.78572,-1.785715 z m 23.21429,10.714289 h -21.42857 c -0.98605,0 -1.78572,-0.797992 -1.78572,-1.785715 0,-0.987723 0.79967,-1.785718 1.78572,-1.785718 h 21.42857 c 0.98772,0 1.78571,0.797995 1.78571,1.785718 0,0.987723 -0.79799,1.785715 -1.78571,1.785715 z"
       id="path17"
       style="fill:#ffffff;stroke-width:0.0558037" />
</svg>
