<svg id="close" width="50" height="50" viewBox="0 0 49.999999 50.000004">
    <rect
       style="fill:#001e64;fill-opacity:1;stroke:#001e64;stroke-width:1.92308;stroke-dasharray:none;stroke-opacity:1"
       id="rect6131"
       width="48.07692"
       height="48.076923"
       x="30.477669"
       y="28.703478"
       rx="4.1227336"
       ry="4.3717575"
       inkscape:label="rect6131" />
    <path
       d="m 67.279858,61.976646 c 0.97649,0.97649 0.97649,2.55839 0,3.53488 -0.48434,0.48824 -1.12491,0.73041 -1.76549,0.73041 -0.64057,0 -1.27959,-0.24412 -1.76705,-0.73236 l -8.23217,-8.22788 -8.23138,8.22593 c -0.48825,0.49214 -1.12804,0.73431 -1.76783,0.73431 -0.639799,0 -1.278811,-0.24217 -1.767445,-0.73431 -0.976486,-0.97649 -0.976486,-2.5584 0,-3.53489 l 8.233735,-8.23373 -8.233735,-8.22982 c -0.976486,-0.97649 -0.976486,-2.5584 0,-3.53488 0.976486,-0.97649 2.558395,-0.97649 3.534875,0 l 8.23178,8.23763 8.23374,-8.23373 c 0.97648,-0.97648 2.55839,-0.97648 3.53488,0 0.97648,0.97649 0.97648,2.5584 0,3.53488 l -8.23374,8.23374 z"
       id="path6055"
       style="fill:#fffbfd;fill-opacity:1;stroke-width:0.0781189" />
</svg>
