<svg id="phone" width="50" height="50" viewBox="0 0 13.229166 13.229167">
    <circle
       style="fill:#ffffff;stroke:none;stroke-width:0.942684;stroke-dasharray:none;stroke-opacity:1"
       id="path5848"
       cx="39.339764"
       cy="32.242989"
       inkscape:transform-center-x="-34.520464"
       inkscape:transform-center-y="-1.6056042"
       r="6.6145835" />
    <path
       d="m 43.020174,28.655766 -1.61229,-0.37206 c -0.17516,-0.0403 -0.355,0.0512 -0.4263,0.21549 l -0.74414,1.73629 c -0.0651,0.15192 -0.0217,0.3302 0.10697,0.43407 l 0.93946,0.76894 c -0.55809,1.18904 -1.53321,2.1781 -2.74707,2.74706 l -0.76892,-0.93946 c -0.10542,-0.12869 -0.28215,-0.17208 -0.43408,-0.10697 l -1.73629,0.74412 c -0.16588,0.0729 -0.25734,0.2527 -0.21704,0.42788 l 0.37207,1.61227 c 0.0387,0.16743 0.18758,0.28834 0.36276,0.28834 3.97021,0 7.19321,-3.21678 7.19321,-7.19321 0,-0.17363 -0.11938,-0.324 -0.28834,-0.36276 z"
       fill="#001e64"
       id="path5279"
       style="stroke-width:0.264583" />
</svg>
