<svg width="0" height="0" class="hidden">
  <symbol version="1.1" id="bars" sodipodiDocname="bars_new.svg" inkscapeVersion="1.2.1 (9c6d41e410, 2022-07-14)" xmlnsInkscape="http://www.inkscape.org/namespaces/inkscape" xmlnsSodipodi="http://sodipodi.sourceforge.net/DTD/sodipodi-0.dtd" xmlns="http://www.w3.org/2000/svg" xmlnsSvg="http://www.w3.org/2000/svg" viewBox="0 0 50.076923 50.076923">
    <defs id="defs23">
      <linearGradient id="linearGradient3219" inkscapeSwatch="solid">
        <stop offset="0" id="stop3217"></stop>
      </linearGradient>
    </defs>
    <sodipodi:namedview id="namedview21" pagecolor="#ffffff" bordercolor="#666666" borderopacity="1.0" inkscapeShowpageshadow="2" inkscapePageopacity="0.0" inkscapePagecheckerboard="0" inkscapeDeskcolor="#d1d1d1" showgrid="false" inkscapeZoom="3.1796875" inkscapeCx="140.10811" inkscapeCy="80.19656" inkscapeWindowWidth="1920" inkscapeWindowHeight="1017" inkscapeWindowX="-8" inkscapeWindowY="-8" inkscapeWindowMaximized="1" inkscapeCurrentLayer="layer1"></sodipodi:namedview>
    <g inkscapeGroupmode="layer" id="layer1" inkscapeLabel="react">
      <rect id="rect1039" width="48.076923" height="48.076923" x="1" y="1" ry="4.8076925" inkscapeLabel="rect1039"></rect>
      <path d="m 12.538465,16.109889 c 0,-0.986049 0.79967,-1.785714 1.78572,-1.785714 h 21.42857 c 0.98772,0 1.78571,0.799665 1.78571,1.785714 0,0.987724 -0.79799,1.785712 -1.78571,1.785712 h -21.42857 c -0.98605,0 -1.78572,-0.797988 -1.78572,-1.785712 z m 0,8.928571 c 0,-0.987723 0.79967,-1.785711 1.78572,-1.785711 h 21.42857 c 0.98772,0 1.78571,0.797988 1.78571,1.785711 0,0.987723 -0.79799,1.785715 -1.78571,1.785715 h -21.42857 c -0.98605,0 -1.78572,-0.797992 -1.78572,-1.785715 z m 23.21429,10.714289 h -21.42857 c -0.98605,0 -1.78572,-0.797992 -1.78572,-1.785715 0,-0.987723 0.79967,-1.785718 1.78572,-1.785718 h 21.42857 c 0.98772,0 1.78571,0.797995 1.78571,1.785718 0,0.987723 -0.79799,1.785715 -1.78571,1.785715 z" id="path17" inkscapeLabel="path17"></path>
    </g>
  </symbol>
  <symbol version="1.1" id="chevron-up" inkscapeVersion="1.2.1 (9c6d41e410, 2022-07-14)" sodipodiDocname="chevron-up_new.svg" xmlnsInkscape="http://www.inkscape.org/namespaces/inkscape" xmlnsSodipodi="http://sodipodi.sourceforge.net/DTD/sodipodi-0.dtd" xmlns="http://www.w3.org/2000/svg" xmlnsSvg="http://www.w3.org/2000/svg" viewBox="0 0 49.999897 50.000004">
    <sodipodi:namedview id="namedview4026" pagecolor="#ffffff" bordercolor="#666666" borderopacity="1.0" inkscapeShowpageshadow="2" inkscapePageopacity="0.0" inkscapePagecheckerboard="0" inkscapeDeskcolor="#d1d1d1" inkscapeDocumentUnits="mm" showgrid="false" inkscapeZoom="0.74564394" inkscapeCx="183.06325" inkscapeCy="561.9304" inkscapeWindowWidth="1920" inkscapeWindowHeight="1017" inkscapeWindowX="-8" inkscapeWindowY="-8" inkscapeWindowMaximized="1" inkscapeCurrentLayer="layer1"></sodipodi:namedview>
    <defs id="defs4021"></defs>
    <g inkscapeLabel="Layer 1" inkscapeGroupmode="layer" id="layer1">
      <rect id="rect4508" width="48.076923" height="48.076923" x="0.96153998" y="0.96153998" ry="4.8076925" rx="4.8076925"></rect>
      <path d="m 35.715683,32.138671 c -0.45692,0 -0.914064,-0.17439 -1.262278,-0.52316 l -9.452009,-9.44894 -9.453125,9.45313 c -0.697544,0.69754 -1.827567,0.69754 -2.525111,0 -0.697545,-0.69755 -0.697545,-1.82757 0,-2.52511 l 10.714286,-10.71429 c 0.697544,-0.69754 1.827566,-0.69754 2.525111,0 l 10.714286,10.71429 c 0.697544,0.69754 0.697544,1.82756 0,2.52511 -0.345981,0.34598 -0.803572,0.51897 -1.26116,0.51897 z" id="path4013"></path>
    </g>
  </symbol>
  <symbol version="1.1" id="close" inkscapeVersion="1.2.1 (9c6d41e410, 2022-07-14)" sodipodiDocname="close.svg" xmlnsInkscape="http://www.inkscape.org/namespaces/inkscape" xmlnsSodipodi="http://sodipodi.sourceforge.net/DTD/sodipodi-0.dtd" xmlns="http://www.w3.org/2000/svg" xmlnsSvg="http://www.w3.org/2000/svg" viewBox="0 0 49.999999 50.000004">
    <sodipodi:namedview id="namedview6068" pagecolor="#ffffff" bordercolor="#666666" borderopacity="1.0" inkscapeShowpageshadow="2" inkscapePageopacity="0.0" inkscapePagecheckerboard="0" inkscapeDeskcolor="#d1d1d1" inkscapeDocumentUnits="mm" showgrid="false" inkscapeZoom="0.74564394" inkscapeCx="43.586487" inkscapeCy="457.32283" inkscapeWindowWidth="1920" inkscapeWindowHeight="1017" inkscapeWindowX="-8" inkscapeWindowY="-8" inkscapeWindowMaximized="1" inkscapeCurrentLayer="layer1"></sodipodi:namedview>
    <defs id="defs6063"></defs>
    <g inkscapeLabel="Layer 1" inkscapeGroupmode="layer" id="layer1" transform="translate(-29.516129,-27.741938)">
      <rect id="rect6131" width="48.07692" height="48.076923" x="30.477669" y="28.703478" rx="4.1227336" ry="4.3717575" inkscapeLabel="rect6131"></rect>
      <path d="m 67.279858,61.976646 c 0.97649,0.97649 0.97649,2.55839 0,3.53488 -0.48434,0.48824 -1.12491,0.73041 -1.76549,0.73041 -0.64057,0 -1.27959,-0.24412 -1.76705,-0.73236 l -8.23217,-8.22788 -8.23138,8.22593 c -0.48825,0.49214 -1.12804,0.73431 -1.76783,0.73431 -0.639799,0 -1.278811,-0.24217 -1.767445,-0.73431 -0.976486,-0.97649 -0.976486,-2.5584 0,-3.53489 l 8.233735,-8.23373 -8.233735,-8.22982 c -0.976486,-0.97649 -0.976486,-2.5584 0,-3.53488 0.976486,-0.97649 2.558395,-0.97649 3.534875,0 l 8.23178,8.23763 8.23374,-8.23373 c 0.97648,-0.97648 2.55839,-0.97648 3.53488,0 0.97648,0.97649 0.97648,2.5584 0,3.53488 l -8.23374,8.23374 z" id="path6055"></path>
    </g>
  </symbol>
  <symbol version="1.1" id="phone" inkscapeVersion="1.2.1 (9c6d41e410, 2022-07-14)" sodipodiDocname="phone.svg" xmlnsInkscape="http://www.inkscape.org/namespaces/inkscape" xmlnsSodipodi="http://sodipodi.sourceforge.net/DTD/sodipodi-0.dtd" xmlns="http://www.w3.org/2000/svg" xmlnsSvg="http://www.w3.org/2000/svg" viewBox="0 0 13.229166 13.229167">
    <sodipodi:namedview id="namedview5292" pagecolor="#ffffff" bordercolor="#666666" borderopacity="1.0" inkscapeShowpageshadow="2" inkscapePageopacity="0.0" inkscapePagecheckerboard="0" inkscapeDeskcolor="#d1d1d1" inkscapeDocumentUnits="mm" showgrid="false" inkscapeZoom="2.9825758" inkscapeCx="53.477267" inkscapeCy="85.16129" inkscapeWindowWidth="1920" inkscapeWindowHeight="1017" inkscapeWindowX="-8" inkscapeWindowY="-8" inkscapeWindowMaximized="1" inkscapeCurrentLayer="layer1"></sodipodi:namedview>
    <defs id="defs5287"></defs>
    <g inkscapeLabel="Layer 1" inkscapeGroupmode="layer" id="layer1" transform="translate(-32.72518,-25.628405)">
      <circle id="path5848" cx="39.339764" cy="32.242989" inkscapeTransformCenterX="-34.520464" inkscapeTransformCenterY="-1.6056042" r="6.6145835"></circle>
      <path d="m 43.020174,28.655766 -1.61229,-0.37206 c -0.17516,-0.0403 -0.355,0.0512 -0.4263,0.21549 l -0.74414,1.73629 c -0.0651,0.15192 -0.0217,0.3302 0.10697,0.43407 l 0.93946,0.76894 c -0.55809,1.18904 -1.53321,2.1781 -2.74707,2.74706 l -0.76892,-0.93946 c -0.10542,-0.12869 -0.28215,-0.17208 -0.43408,-0.10697 l -1.73629,0.74412 c -0.16588,0.0729 -0.25734,0.2527 -0.21704,0.42788 l 0.37207,1.61227 c 0.0387,0.16743 0.18758,0.28834 0.36276,0.28834 3.97021,0 7.19321,-3.21678 7.19321,-7.19321 0,-0.17363 -0.11938,-0.324 -0.28834,-0.36276 z" fill="#001e64" id="path5279"></path>
    </g>
  </symbol>
</svg>